<?xml version="1.0" encoding="utf-8"?>
<svg version="1.1" viewBox="0 0 441.84 101.87" xmlns="http://www.w3.org/2000/svg">
	<title>The words “Thither J. F.” followed by a line drawing of a hand in profile with its index finger extended to point to the right.</title>
	<path d="m98.627 101.08c-0.36667-0.36666-0.66667-1.5256-0.66667-2.5754 0-1.5535 0.60484-1.8482 3.25-1.5833l3.25 0.32537 0.2771-15.445c0.23497-13.097 0.0418-15.577-1.271-16.311-0.85147-0.47651-1.2871-1.2887-0.96808-1.8049 0.78027-1.2625 10.462-1.2056 10.462 0.06146 0 0.55-0.675 1-1.5 1-1.216 0-1.5243 1.7514-1.6281 9.25-0.12148 8.7717-0.19989 10.921-0.67215 18.423-0.35981 5.716-7.5585 11.635-10.533 8.6601zm20.295-9.88c-1.6108-1.941-0.47838-4.4533 2.0074-4.4533 1.4759 0 2.0314 0.65434 2.0314 2.393 0 2.8546-2.3744 4.0658-4.0388 2.0603zm60.677 0.0467c-0.93036-2.4245 0.4004-4.5 2.8853-4.5 2.6631 0 3.602 1.7303 2.306 4.25-1.102 2.1426-4.404 2.3016-5.1913 0.25zm-27.087-0.41761c-0.24666-0.3991 0.42848-1.4765 1.5003-2.3942 1.6616-1.4227 1.9488-2.9843 1.9488-10.597 0-9.7745-0.49958-12.092-2.607-12.092-0.76615 0-1.393-0.45-1.393-1 0-0.60835 4.4775-1 11.433-1 10.693 0 11.475 0.13431 12.091 2.0754 0.96668 3.0457 0.10341 3.2774-3.6611 0.98226-1.9929-1.215-5.0941-2.0517-7.6128-2.0539l-4.25-0.0037v11h3.4915c2.4085 0 3.879-0.62036 4.7405-2 1.9505-3.1233 2.7679-2.385 2.7679 2.5 0 3.3333-0.17594 5.2666-1.287 5.2666-0.825 0-1.2445-0.59028-1.713-1.2502-0.46534-0.6555-1.547-1.3074-1.547-1.3074l-1.4216-0.73325c-1.4648-0.75555-1.8273-0.56472-2.6851-0.89753-1.5302-0.59372-2.3462 0.18487-2.3462 5.3365 0 5.1044 0.26835 5.9222 2.1006 6.4013 1.1553 0.30213 1.8198 1.0038 1.4765 1.5592-0.7062 1.1426-10.336 1.3236-11.026 0.20714zm186.67-16.794c-4.0563-0.38552-4.2777-0.57148-4.2839-3.5977-4e-3 -1.7551-0.27443-5.2162-0.60182-7.6912s-0.64962-6.75-0.71607-9.5c-0.0664-2.75-0.47266-5.5427-0.90269-6.2061-0.49593-0.76501 0.23547-1.8393 2-2.9375 1.53-0.95228 3.77-2.8137 4.9777-4.1364s2.6702-2.1118 3.25-1.7535c0.63399 0.39183 1.0542-0.36847 1.0542-1.9075 0-2.597-0.63736-2.9357-4.8621-2.5835-1.4603 0.12175-2.2087-0.26314-1.9604-1.0081 0.48981-1.4694 8.8225-2.3813 8.8225-0.9655 0 1.38 3.3429 1.2552 4.7764-0.17828 0.90183-0.90183 1.6319-0.7641 3.1283 0.59013 2.4992 2.2617 5.6359 1.2933 25.35-7.8265 8.8331-4.0863 10.454-4.2063 28.746-2.1279 18.054 2.0514 31.006 4.301 32.659 5.6725 2.329 1.9329 1.1928 5.1341-2.1588 6.0825-1.65 0.46693-7.95 0.78442-14 0.70554-21.753-0.2836-24.042 0.17157-17.197 3.4195 4.8253 2.2897 7.0125 5.056 6.1981 7.839-2.4314 8.3087-5.133 10.523-4.0531 3.3217 0.64555-4.3048 0.56729-4.5-1.8047-4.5-3.6537 0-5.6402 1.0018-5.6653 2.857-0.0168 1.2407-0.50105 1.0309-1.9778-0.85699-1.0755-1.375-1.9651-2.725-1.9768-3-0.0117-0.275 2.6778-0.5 5.9768-0.5s5.9986-0.13132 5.9991-0.29181c5e-4 -0.1605-0.89908-1.2578-1.9991-2.4386-1.1-1.1807-2-1.8063-2-1.3901 0 0.41616-1.3089-0.17534-2.9086-1.3144l-2.9086-2.0711-5.1092 6.072-5.7868-2.9236c-3.1827-1.608-6.6746-3.9066-7.7597-5.108l-1.9728-2.1843 2.9728 0.72589c1.6351 0.39924 3.3296 1.3275 3.7657 2.0627 0.43605 0.73526 1.7279 1.8372 2.8707 2.4489 1.1906 0.6372 1.8151 0.68692 1.4625 0.11643-0.33843-0.54758 0.31363-2.055 1.449-3.3498l2.0643-2.3542-0.59942 2.7925-0.59941 2.7925 2.7797-1.7694c3.6601-2.3299 4.2462-3.255 4.2644-6.7323 0.0188-3.5914 1.0187-2.8513 1.4273 1.0565 0.37263 3.5642 3.2831 4.1222 10.431 1.9996 2.7409-0.81395 5.2849-1.1783 5.6534-0.80963 0.97385 0.97423 17.391 1.1613 17.982 0.20487 0.47349-0.76612-1.4129-2.9134-2.4786-2.8213-0.91945 0.07941-11.409-1.3704-20-2.7643-4.675-0.75851-12.24-1.6488-16.812-1.9784l-8.3122-0.59932-9.5002 4.561c-5.2251 2.5085-10.65 4.8496-12.056 5.2024-1.4054 0.35274-5.0338 1.9639-8.0629 3.5803-3.6622 1.9542-6.2973 2.7408-7.8646 2.3474-1.7014-0.42704-2.707-0.03121-3.6152 1.423-0.69198 1.108-1.8249 2.0146-2.5176 2.0146s-1.2594 0.675-1.2594 1.5 0.39232 1.5 0.87182 1.5c0.47949 0 0.8256 1.7623 0.76913 3.9162-0.0601 2.2904 0.56167 4.6774 1.4977 5.75 0.88021 1.0086 1.3966 2.3963 1.1475 3.0838-0.32451 0.89575 1.0586 1.268 4.8805 1.3134 4.3133 0.05126 4.8907 0.2409 3.0191 0.99154-5.6132 2.2513 2.3971 4.5748 18.814 5.4573l11.5 0.61822-2.25-2.1042c-1.2375-1.1573-2.327-2.8742-2.421-3.8152-0.0941-0.94108-0.27124-2.386-0.3937-3.211s-0.27049-1.9235-0.32895-2.4411c-0.0585-0.51762-0.76699-0.06762-1.5745 1-0.82702 1.0934-1.4821 1.3952-1.5 0.69113-0.0175-0.6875-0.52994-1.25-1.1388-1.25-0.60884 0-0.86068 0.64187-0.55964 1.4264 0.45653 1.1897-1.3374 1.3971-10.811 1.25-11.236-0.17448-14.349-0.90987-11.494-2.7154 1.2548-0.79353 1.2295-0.93257-0.17197-0.94563-0.90366-0.0084-1.9162-0.72712-2.25-1.5971-1.1881-3.0962-0.5747-3.7374 1.643-1.7175 4.192 3.8182 7.0085 4.6914 14.238 4.4143 3.8435-0.1473 7.2807-0.7411 7.6382-1.3195s1.1195-0.76155 1.6934-0.40688c0.57386 0.35466 1.7701-0.37518 2.6582-1.6219 1.5902-2.2321 1.6322-2.2363 2.7525-0.27656 1.046 1.8298 1.6303 4.5597 1.8381 8.5886 0.13876 2.6895 10.947 8.2176 10.919 5.5848-7e-3 -0.63994-1.5818-2.1802-3.5-3.4227s-3.4733-3.0426-3.4558-4c0.0302-1.6537 0.0979-1.6538 1.3525-0.0014 1.8342 2.4158 8.3554 4.978 10.742 4.2206 1.5551-0.49356 1.7331-0.92478 0.83069-2.0121-0.63171-0.76116-1.4429-1.345-1.8026-1.2975-1.6508 0.21817-3.1541-0.21905-3.1541-0.91734 0-0.42181 1.8511-0.81547 4.1136-0.87479 4.8154-0.12627 6.52-2.0007 4.1753-4.5916-2.079-2.2973-1.2411-3.0793 1.9851-1.8527 2.3094 0.87802 2.5063 1.3785 2.0766 5.278-0.8811 7.9966-1.0972 8.3527-6.8286 11.253-4.8279 2.4427-6.0185 2.6727-9.3965 1.8153-2.1275-0.54001-5.9123-0.67161-8.4107-0.29244-4.186 0.63527-20.666-0.88572-26.85-2.4781-2.4189-0.62283-2.7535-0.32196-4.0773 3.6661-1.5792 4.7574-2.5702 5.0834-12.565 4.1335zm10.127-6.2889c1.2508-2.5072 1.2686-3 0.10843-3-1.3944 0-3.4585 2.9449-3.4585 4.9343 0 2.0976 1.8803 1.012 3.3501-1.9343zm-8.6428-8.2383c-0.23919-1.2439-0.44398-0.46166-0.45508 1.7383s0.18461 3.2177 0.4349 2.2617c0.25029-0.95609 0.25937-2.7561 0.0202-4zm7.3677 1.9633c-0.12369-1.1957-1.4953-0.96414-1.925 0.325-0.22 0.66 0.14 1.02 0.8 0.8s1.1662-0.72625 1.125-1.125zm-10.075-5.425c0-3.0491-0.34206-4.3579-0.97383-3.7262-0.86529 0.86529-0.32271 8.4262 0.60467 8.4262 0.20304 0 0.36916-2.115 0.36916-4.7zm3.6013-7.9802c0.10638-3.6331-0.13729-6.0706-0.54149-5.4165-0.98968 1.6013-1.3856 13.756-0.41647 12.787 0.4205-0.4205 0.85158-3.7371 0.95796-7.3702zm49.956 6.4302c-1.1533-3.7966-1.2527-5.75-0.29265-5.75 0.5927 0 1.9033-0.74724 2.9125-1.6605 2.8378-2.5682 3.4693-0.65723 0.74322 2.2491-1.3313 1.4194-2.2798 3.4426-2.1078 4.4961 0.34574 2.1167-0.65359 2.6463-1.2553 0.66535zm-6.2428-0.83522c-0.63717-0.63717-0.93375-1.7441-0.65908-2.4599 0.82904-2.1604-3.3208-3.6276-8.1938-2.8969-3.0118 0.45165-4.4619 0.30722-4.4619-0.44444 0-0.61245 1.1775-1.1135 2.6166-1.1135 2.1243 0 2.5182-0.37631 2.0936-2-0.6674-2.5522-0.68634-2.5571 3.7898 1 2.0763 1.65 4.8381 3 6.1375 3 2.6088 0 3.0374 1.6947 1.0991 4.3455-0.95747 1.3094-1.5439 1.4473-2.4218 0.56928zm12.685 0.14424c0-0.51754 0.44485-1.2159 0.98855-1.5519 0.56686-0.35034 0.7345 0.05106 0.39301 0.94098-0.66479 1.7324-1.3816 2.0494-1.3816 0.61096zm-65-21.059c0-0.55 0.70156-1 1.559-1s1.2809 0.45 0.94098 1-1.0415 1-1.559 1-0.94098-0.45-0.94098-1zm62.015-2.191c-8e-3 -0.93004 0.43469-1.9691 0.98469-2.309 1.2656-0.78218 1.2656 0.54163 0 2.5-0.8354 1.2927-0.97149 1.2663-0.98469-0.19098zm-3.0153-0.69098c0-0.55 0.45-1.2781 1-1.618s1-0.16803 1 0.38197-0.45 1.2781-1 1.618-1 0.16803-1-0.38197zm-385-1.618c0-0.825 0.41786-1.5 0.92857-1.5 0.51072 0 1.6357-0.70714 2.5-1.5714 1.2277-1.2277 1.5714-3.8528 1.5714-12 0-10.249-0.04011-10.429-2.3257-10.429-1.2791 0-3.3826 1.125-4.6743 2.5s-2.9452 2.5-3.6743 2.5c-1.685 0-1.7228-4.0747-0.05889-6.3502 1.1317-1.5477 2.5611-1.6593 13.405-1.0464 11.536 0.65194 12.193 0.80531 13.233 3.0884 0.60202 1.3213 1.0946 2.6062 1.0946 2.8553 0 1.1661-2.4471 0.21368-5.5691-2.1675-5.3835-4.1062-6.4309-2.4417-6.4309 10.22 0 9.9318 0.10171 10.421 2.4914 11.987 3.7326 2.4457 2.1587 3.4137-5.5504 3.4137-5.5031 0-6.941-0.31074-6.941-1.5zm38.61 0.67838c-0.27928-0.45189 0.41794-1.6143 1.5494-2.583 1.573-1.3469 1.914-2.4773 1.4488-4.8034-0.33462-1.6731-0.6084-6.5857-0.6084-10.917 0-6.3333-0.29365-7.875-1.5-7.875-0.825 0-1.5-0.45-1.5-1s2.25-1 5-1c4.8722 0 6.5772 1.1808 3.4421 2.3839-1.1472 0.44021-1.4767 1.7208-1.25 4.857l0.30794 4.2591 15.5 0.58413v-4.2133c0-2.5172-0.66623-4.9495-1.655-6.0421-1.583-1.7492-1.4307-1.8287 3.5-1.8287 2.8352 0 5.155 0.45 5.155 1s-0.675 1-1.5 1c-1.2466 0-1.5 1.9479-1.5 11.531 0 9.3276 0.28666 11.641 1.5 12.107 0.825 0.31658 1.5 1.2077 1.5 1.9804 0 1.3076-1.9999 1.4001-10.424 0.482-0.50837-0.0554 0.05413-1.1422 1.25-2.4152 2.1291-2.2663 2.8331-6.8051 1.5673-10.104-0.78246-2.0391-14.334-2.3493-14.49-0.33179-0.37766 4.8722 0.44475 9.4169 1.9073 10.539 1.4692 1.1277 1.4923 1.4081 0.18476 2.2347-1.8433 1.1653-8.6905 1.2778-9.3849 0.15421zm48.39 0.25019c0-0.31428 0.675-1.2464 1.5-2.0714 2.2609-2.2609 2.1375-20.995-0.15499-23.528-1.5836-1.7498-1.4259-1.8287 3.655-1.8287 5.0809 0 5.2386 0.0789 3.655 1.8287-2.3681 2.6167-2.446 22.654-0.0916 23.557 2.8224 1.083 0.40794 2.6141-4.1224 2.6141-2.4425 0-4.441-0.25714-4.441-0.57143zm35.77-0.57108c-0.607-0.3749-0.15101-1.1184 1.0948-1.7852 1.9447-1.0408 2.1339-1.9644 2.1214-10.357-8e-3 -5.0681-0.285-10.227-0.61664-11.465-0.80958-3.021-3.8301-2.8805-7.0379 0.32727-3.3143 3.3143-5.4698 1.8085-2.9394-2.0535 1.6598-2.5332 1.8852-2.5759 12.719-2.4094 11.171 0.17162 13.888 1.0322 13.888 4.3981 0 2.4826-1.673 2.4646-4.029-0.04323-1.2758-1.3581-3.0861-2.4692-4.0229-2.4692-3.3389 0-4.0366 2.4251-3.6102 12.547 0.37235 8.839 0.6339 9.926 2.7865 11.581 1.3066 1.0047 1.9256 1.8881 1.3756 1.9631-3.3538 0.45728-10.853 0.30744-11.73-0.23439zm36.795 0.2473c-0.3043-0.49237 0.11914-1.1532 0.94098-1.4686 2.2057-0.84641 2.2004-23.428-6e-3 -24.275-3.082-1.1828-1.3349-2.3616 3.5003-2.3616s6.5822 1.1789 3.5 2.3616c-1.0607 0.40702-1.5 2.062-1.5 5.6508v5.0752l14.5-0.58762 0.30226-5.25c0.18416-3.1987-0.10889-5.25-0.75-5.25-0.57874 0-1.0523-0.45-1.0523-1s2.025-1 4.5-1c4.6329 0 5.5562 0.87855 3.0816 2.9323-2.1267 1.765-2.2029 22.615-0.0856 23.428 3.029 1.1624 1.3852 2.6399-2.937 2.6399-4.5107 0-6.7738-1.3199-4.0533-2.3638 1.0765-0.41308 1.4943-2.1199 1.4943-6.1048v-5.5314h-15v5.5314c0 3.9943 0.41683 5.6913 1.5 6.107 0.825 0.31658 1.5 0.97746 1.5 1.4686 0 1.1666-8.7141 1.1646-9.4352-0.0022zm48.435-0.10478c0-0.55 0.675-1 1.5-1 1.25 0 1.5-2 1.5-12 0-11.493-0.088-12-2.0833-12-1.1458 0-1.9113-0.51624-1.7009-1.1472 0.25344-0.76033 4.0464-1.1819 11.248-1.25l10.865-0.10281 0.93964 2.8125c1.2772 3.8229 0.22007 4.4953-2.7221 1.7312-1.6664-1.5655-3.7508-2.3317-6.5422-2.4049-4.9002-0.12849-6.1289 1.317-5.7652 6.7822 0.23464 3.5262 0.5621 3.9609 3.252 4.3165 2.3472 0.31029 3.4763-0.21092 5.245-2.4211l2.2539-2.8165-0.0173 6c-0.0169 5.8641-0.0564 5.9504-1.745 3.8106-2.3079-2.9246-6.4913-3.903-8.1488-1.9058-1.0387 1.2515-1.0933 5.6052-0.12981 10.345 0.0279 0.1375 2.3213 0.25 5.0963 0.25 4.0485 0 5.5394-0.49399 7.5455-2.5 3.9929-3.9929 5.3886-3.2064 3.4338 1.9349-0.969 2.5487-1.0491 2.5651-12.5 2.5651-7.0165 0-11.525-0.39118-11.525-1zm43 0c0-0.55 0.675-1 1.5-1 1.4758 0 1.8551-4.1581 1.6873-18.5-0.0658-5.6222-0.0283-5.5-1.6873-5.5-2.0755 0-1.8883-1.7582 0.25-2.3478 0.9625-0.2654 5.0749-0.38098 9.1386-0.25685 6.7221 0.20533 7.6066 0.4791 9.8049 3.0347 3.3395 3.8824 2.7849 7.6153-1.4219 9.5699-1.7756 0.825-3.2259 1.95-3.2229 2.5 7e-3 1.3337 6.2584 7.9999 9.4834 10.113 3.1977 2.0952 1.9398 3.6512-2.5951 3.2098-2.7955-0.27207-4.0452-1.3451-7.9455-6.8228-2.5455-3.575-5.0475-6.5-5.5599-6.5s-1.0678 2.3675-1.2343 5.2612c-0.23178 4.0293 0.0609 5.4007 1.25 5.857 3.2364 1.2419 1.3472 2.3818-3.9474 2.3818-3.025 0-5.5-0.45-5.5-1zm15.777-15.557c2.4485-1.715 3.0116-6.2543 1.0225-8.2433-0.66-0.66-2.91-1.2-5-1.2-4.053 0-4.0222-0.0612-4.0222 8 0 1.1 0.05 2.225 0.11111 2.5 0.25212 1.1346 5.8261 0.3879 7.8886-1.0567z"/>
</svg>
