<?xml version="1.0" encoding="utf-8"?>
<svg xmlns="http://www.w3.org/2000/svg" version="1.1" viewBox="0 0 95.678 10.593">
	<title>The word “Alleluja” rendered in stylized Gothic letters.</title>
	<path d="m78.189 10.406c-0.25466-0.14833-0.46302-0.56143-0.46302-0.918 0-0.82834 0.78258-0.86802 1.8311-0.0929 0.61497 0.45467 0.85307 0.50099 1.3122 0.25527 0.44331-0.23725 0.55537-0.53398 0.53453-1.4153-0.0457-1.9311-0.28737-2.3986-1.3728-2.6553-1.2543-0.29663-1.2471-0.61707 0.0215-0.95867 0.81006-0.21813 1.0698-0.45345 1.3472-1.2206 0.3981-1.1009 0.45521-0.99855-0.86169-1.5444-1.3009-0.53925-1.2245-0.56343-1.2245 0.38747 0 0.69089-0.0889 0.79953-0.59532 0.7276-0.90336-0.1283-0.92611-1.2691-0.0429-2.1523 0.84528-0.84528 1.3935-0.88471 2.7025-0.19434 0.53816 0.28383 1.1826 0.57611 1.432 0.64951 0.41018 0.1207 0.41666 0.20415 0.0678 0.87301-0.60022 1.1507-0.49743 2.0604 0.27245 2.4112 0.78089 0.3558 0.85274 0.74553 0.17697 0.96001-0.40633 0.12896-0.46855 0.37725-0.38569 1.5392 0.0583 0.81714-0.043 1.6567-0.2468 2.0469-0.6618 1.2667-3.2712 2.0206-4.5054 1.3017zm-76.002-1.3017c-0.29105-0.12506-0.85659-0.23576-1.2568-0.24599-0.83105-0.0212-0.91345-0.3955-0.33235-1.5097 0.476-0.9127 0.53119-3.8266 0.081-4.2768-0.24694-0.24694-0.15488-0.3175 0.41427-0.3175 0.40247 0 0.96975-0.12736 1.2606-0.28303 0.43196-0.23118 0.46912-0.35502 0.20281-0.67591-0.17933-0.21607-0.54472-0.50989-0.81198-0.65293-0.39378-0.21074-0.54395-0.13274-0.79184 0.41132-0.34876 0.76544-1.0167 0.90315-1.0107 0.20836 5e-3 -0.61287 0.26984-0.98052 0.97074-1.3494 0.84523-0.44489 1.6029-0.37535 2.8846 0.26475 1.0747 0.53673 1.1769 0.54422 1.8056 0.13229 0.36652-0.24016 0.77718-0.43665 0.91257-0.43665 0.13627 0 0.26347 1.443 0.28495 3.2325 0.0301 2.5063 0.13083 3.3342 0.44846 3.6852 0.51913 0.57363 0.26081 1.4614-0.49504 1.7013-0.8977 0.28492-1.5242-0.71421-1.5242-2.4306 0-1.462-0.21072-1.7315-0.79929-1.0223-0.30016 0.36168-0.38118 0.36168-0.78083 0-0.63855-0.57788-1.0657-0.4981-1.0657 0.19904 0 0.33142-0.17597 0.85381-0.39104 1.1609-0.38047 0.5432-0.35188 0.56317 1.0583 0.73937 1.5453 0.19307 1.8015 0.53606 0.96551 1.2926-0.524 0.47422-1.1959 0.53159-2.0297 0.1733zm1.9391-4.9358c0.82821 0.74953 1.1036 0.53255 1.1036-0.86942 0-0.71901-0.11556-1.3787-0.25681-1.466-0.28808-0.17804-1.8865 0.57073-2.1865 1.0243-0.10691 0.16159-0.19621 0.63968-0.19844 1.0624-4e-3 0.7519 7e-3 0.7582 0.52512 0.28972 0.49326-0.4464 0.56199-0.44918 1.013-0.041zm11.451 4.6637c-1.252-0.37046-1.8245-0.42885-2.2055-0.22496-0.90602 0.48488-0.8411 6e-3 0.12013-0.88681 0.88202-0.81891 0.93854-0.97594 1.0592-2.9426 0.0831-1.3537 0.25331-2.1553 0.48858-2.3007 0.42059-0.25994 0.42156-0.25902-0.89855-0.85947-1.284-0.584-1.7348-0.33458-0.9347 0.5171 0.51516 0.54836 0.54858 0.6858 0.21833 0.8978-0.73555 0.47218-1.1803 0.15578-1.2674-0.90166-0.15431-1.8738 1.5135-2.646 3.2468-1.5034 0.77585 0.51142 0.78853 0.51134 1.6327-0.0104 0.46793-0.28919 0.91403-0.42345 0.99135-0.29835 0.0773 0.1251 0.11446 1.488 0.0826 3.0286-0.0478 2.3087-0.14475 2.897-0.55142 3.3463-0.48579 0.53679-0.48176 0.54962 0.26163 0.83225 0.85217 0.324 1.8706 4e-3 2.1287-0.66819 0.22007-0.5735 0.62573-0.49193 0.62573 0.12583 0 0.28875-0.32743 0.88819-0.72761 1.3321-0.93085 1.0326-2.0637 1.1696-4.2706 0.51662zm1.0295-4.5433c0-3.1439-0.47077-3.3174-0.56916-0.20983-0.0402 1.2702-0.20164 2.1489-0.44927 2.4455-0.35206 0.42176-0.3239 0.46303 0.31596 0.46303h0.70247zm12.171 4.6555c-0.65484-0.214-1.6966-0.33972-2.3151-0.27939-1.4106 0.13762-1.4774-0.28707-0.19844-1.2626 0.91107-0.69491 0.92604-0.73793 0.92604-2.6616 0-1.0754 0.11906-2.0289 0.26458-2.1188 0.47712-0.29488 0.27968-0.54933-0.7276-0.93772-0.5457-0.2104-1.0815-0.42284-1.1906-0.47207-0.10914-0.0492-0.19843 0.10274-0.19843 0.33771 0 0.23498 0.17859 0.49576 0.39687 0.57952 0.47322 0.1816 0.51408 0.6664 0.0918 1.0887-0.20992 0.20992-0.45756 0.22353-0.79375 0.0436-0.71701-0.38374-0.64642-1.8545 0.12374-2.578 0.73742-0.69278 1.0118-0.707 2.6073-0.1352 1.1396 0.40844 1.2858 0.4096 1.8879 0.0151 0.35896-0.2352 0.72583-0.35445 0.81527-0.26501 0.0894 0.0894 0.16262 1.4975 0.16262 3.1289 0 2.7812-0.0371 2.9913-0.59532 3.3666-0.77002 0.51768-0.55351 0.71255 0.85291 0.76766 0.79711 0.0312 1.2362-0.088 1.4621-0.39706 0.40728-0.55699 0.66152-0.56405 0.66152-0.0184 0 0.66329-1.7147 2.2249-2.4209 2.2048-0.34198-0.01-1.1576-0.19279-1.8124-0.40679zm-0.0255-1.9354c0.4808-0.3044 0.67102-5.1309 0.19602-4.9738-0.1841 0.0609-0.33356 0.92123-0.38125 2.1946-0.0431 1.152-0.19198 2.208-0.33073 2.3468-0.56007 0.56006-0.18378 0.8754 0.51596 0.43239zm38.798 2.1669c-0.97214-0.24694-1.7043-0.90815-2.247-2.0291-0.67758-1.3997-0.69-2.7891-0.037-4.1407 0.41297-0.85474 0.43541-1.0455 0.12298-1.0455-0.21019 0-0.68247-0.19676-1.0495-0.43725-0.66493-0.43567-0.66667-0.43463-0.48461 0.29078 0.15512 0.61803 0.10745 0.71366-0.31555 0.63298-0.66525-0.12689-0.79001-1.1947-0.21395-1.8312 0.52097-0.57566 1.122-0.63883 2.051-0.21555 0.47031 0.21429 0.78991 0.21182 1.2031-9e-3 0.67922-0.3635 0.70579-0.12158 0.11639 1.0599-0.64905 1.3011-0.76451 3.4162-0.24165 4.4273 0.44668 0.86379 1.3244 1.5024 1.7248 1.255 0.12774-0.0789 0.23523-1.1858 0.23885-2.4596 5e-3 -1.6962-0.0998-2.4341-0.39111-2.7571-1.0024-1.1116 1.0064-2.2118 2.566-1.4053 0.6064 0.31358 0.92415 0.35548 1.1306 0.14907 0.60935-0.60935 0.71043-0.18109 0.71043 3.0099 0 3.0208 0.0471 3.3408 0.56219 3.8207l0.56219 0.52376-0.76063 0.66881c-0.41834 0.36785-0.85185 0.67258-0.96334 0.67718-0.1115 5e-3 -0.40144-0.40836-0.64432-0.91769-0.24288-0.50932-0.52448-0.92604-0.62577-0.92604-0.1013 0-0.50203 0.41672-0.89051 0.92604-0.68296 0.89542-1.0227 1.0127-2.1236 0.73305zm2.9571-2.1719c0.19423-0.24905 0.32499-1.3069 0.32905-2.6622 7e-3 -2.237 2e-3 -2.2514-0.80677-2.712-0.44744-0.25466-0.92294-0.46302-1.0567-0.46302-0.39372 0-0.30801 6.2833 0.0876 6.4213 0.45211 0.1577 1.0596-0.0875 1.4468-0.58404zm19.521 2.1003c-0.29104-0.12506-0.85659-0.23576-1.2568-0.24599-0.8421-0.0215-0.9558-0.54635-0.26749-1.2347 0.54796-0.54796 0.86474-4.3402 0.36256-4.3402-0.16143 0-0.29351-0.11906-0.29351-0.26458 0-0.14553 0.33443-0.26459 0.74318-0.26459s0.96517-0.16232 1.2365-0.36072c0.47343-0.34618 0.46747-0.37744-0.14787-0.7757-0.99637-0.64486-1.3741-0.63811-1.5438 0.0276-0.21189 0.83132-0.66775 0.86161-0.76063 0.0505-0.0516-0.45017 0.11083-0.77687 0.50837-1.0227 0.77276-0.47798 2.496-0.43577 3.2838 0.0804 0.81995 0.53725 1.0767 0.52158 1.9788-0.12079 0.41243-0.29368 0.79972-0.44251 0.86065-0.33073 0.0609 0.11177 0.13532 1.6893 0.1653 3.5056 0.0418 2.5292 0.14894 3.4067 0.45773 3.7479 0.36191 0.39991 0.35732 0.51555-0.0449 1.1294-0.9146 1.3959-1.9578 0.46643-2.0099-1.7906-0.0374-1.6226-0.24214-1.9843-0.76596-1.3531-0.29608 0.35675-0.39828 0.35644-0.94671-3e-3 -0.81993-0.53724-0.89801-0.51476-0.89801 0.25862 0 0.3638-0.22431 0.88577-0.49846 1.1599-0.48824 0.48823-0.46651 0.50208 1.0583 0.6746 1.6988 0.1922 1.9995 0.60355 0.96876 1.3255-0.64313 0.45046-1.3707 0.49939-2.1901 0.14729zm1.336-4.9574c0.31902-0.43629 0.36166-0.43629 0.84375 0 0.27926 0.25273 0.63347 0.45951 0.78712 0.45951 0.3209 0 0.38917-2.5845 0.0734-2.7796-0.34028-0.2103-2.0377 0.61113-2.2144 1.0716-0.21498 0.56022-0.21169 1.708 5e-3 1.708 0.0931 0 0.32047-0.20678 0.50527-0.45951zm-53.451 3.9945c0.35941-0.52963 0.65348-1.2221 0.65348-1.5389 0-1.2279-0.59548-3.7381-0.99169-4.1805-0.2289-0.25555-0.36729-0.5089-0.30755-0.563 0.0597-0.0541 0.8061-0.1622 1.6586-0.24024 0.88375-0.0809 2.09-0.42208 2.8064-0.79376 1.2923-0.67046 2.6935-0.73314 3.75-0.16774 0.46336 0.24798 0.46672 0.30312 0.0566 0.92906-0.29217 0.44591-0.57586 0.60736-0.8599 0.48937-0.65075-0.27031-2.2182-0.6309-2.7731-0.63794-0.44692-6e-3 -0.47857 0.13345-0.31348 1.3779 0.101 0.76135 0.23587 1.4365 0.29971 1.5003 0.0639 0.0639 0.39118-0.14236 0.72741-0.45822 0.45466-0.42714 0.94169-0.57431 1.9005-0.57431h1.2892l-0.77275 0.80657c-0.66578 0.69492-0.90322 0.78452-1.7155 0.64729-1.1051-0.1867-1.7392 0.33641-2.0022 1.6518-0.16096 0.80482-0.13944 0.82572 1.0308 1.0012 1.7626 0.26432 2.7395-0.0306 3.1464-0.94976 0.41398-0.93526 0.74342-1.0033 0.74342-0.15353 0 0.87916-1.0744 2.3667-1.9255 2.6661-0.47923 0.16854-1.5055 0.14128-3.0822-0.0819-1.7042-0.2412-2.5116-0.25536-2.894-0.0507-0.95604 0.51165-1.0888 0.29934-0.42481-0.67916zm2.548-1.2633c0.0961-0.13303 0.12952-0.60928 0.0742-1.0583-0.0553-0.44905-0.17098-1.382-0.25711-2.0732-0.22797-1.8295-0.65679-1.5393-0.58626 0.39687 0.0331 0.90951-0.043 1.9898-0.16924 2.4005-0.19898 0.64762-0.16348 0.73555 0.26707 0.66146 0.2731-0.047 0.57518-0.19429 0.6713-0.32732zm13.584 1.8225c-0.58209-0.19152-1.475-0.28934-1.9844-0.21738l-0.92604 0.13084 0.99219-0.94906c0.96892-0.92681 0.99219-0.99429 0.99219-2.877 0-1.1878 0.12696-2.0561 0.33073-2.2619 0.26498-0.26759 0.22554-0.39645-0.19844-0.64823-0.86584-0.51419-1.7052-0.68425-1.8912-0.38319-0.0957 0.15483 0.0377 0.43632 0.2965 0.62553 0.51283 0.37499 0.37992 1.1632-0.19613 1.1632-1.0952 0-1.3039-1.5595-0.33782-2.5256 0.7993-0.79931 1.7754-0.82915 2.9701-0.0908 0.81636 0.50453 0.94748 0.51936 1.3542 0.15313 1.0882-0.98 1.2037-0.74619 1.1479 2.3227-0.0451 2.4778-0.12895 2.9833-0.57366 3.4566-0.71684 0.76305-0.67345 0.84492 0.5581 1.053 0.88987 0.15034 1.1831 0.0844 1.6733-0.37604 0.32687-0.30708 0.6752-0.47745 0.77405-0.37859 0.20736 0.20736-0.4821 1.3887-1.0947 1.8756-0.52617 0.41826-2.5068 0.38108-3.8868-0.073zm0.87312-1.7659c0.38058-0.38058 0.44643-5.5033 0.0707-5.5033-0.3682 0-0.49972 0.71064-0.53603 2.8964-0.018 1.0837-0.14587 2.1067-0.28414 2.2733-0.46724 0.56298 0.21593 0.86709 0.74943 0.3336z" stroke-width=".26458"/>
</svg>
